<?xml version="1.0" encoding="utf-8"?>
<!-- Generator: Adobe Illustrator 23.0.3, SVG Export Plug-In . SVG Version: 6.00 Build 0)  -->
<svg version="1.1" id="Layer_1" xmlns="http://www.w3.org/2000/svg" xmlns:xlink="http://www.w3.org/1999/xlink" x="0px" y="0px"
	 viewBox="0 0 100 100" enable-background="new 0 0 100 100" xml:space="preserve">
<path d="M88.52,95V70.75c0-0.83-0.67-1.5-1.5-1.5h-10c-0.83,0-1.5,0.67-1.5,1.5v0.74c-6.45-4.2-14.25-1.96-17.59-0.66
	c-1.41,0.55-2.98,0.83-4.66,0.83h-8.35c-1.85,0-3.56,0.76-4.77,1.98L25.7,64.79c-1.51-0.91-3.19-1.23-4.71-0.9
	c-2.32,0.5-3.87,2.17-4.38,4.7c-0.5,2.48,0.46,5.05,2.51,6.7c20.7,16.66,29.53,18.35,32.25,18.35c0.29,0,0.52-0.02,0.68-0.04h23.48
	V95c0,0.83,0.67,1.5,1.5,1.5h10C87.85,96.5,88.52,95.83,88.52,95z M51.92,90.59c-0.12,0-0.18,0-0.3,0.03
	c-0.07,0.01-7.51,0.93-30.62-17.67c-1.16-0.93-1.73-2.41-1.45-3.77c0.36-1.79,1.36-2.21,2.08-2.36c0.77-0.17,1.68,0.02,2.52,0.53
	l14.47,8.86c-0.03,0.1-0.08,0.19-0.1,0.29c-0.45,1.9,0.01,3.68,1.35,5.13c1.27,1.37,3.16,2.17,5.19,2.18
	c5.2,0.03,9.3,0.04,12.3,0.04c3.68,0,5.7-0.02,6.01-0.06c0.81-0.1,1.37-0.83,1.29-1.64c-0.08-0.81-0.8-1.4-1.63-1.34
	c-0.65,0.05-7.69,0.05-17.96,0c-1.2-0.01-2.3-0.45-3-1.21c-0.66-0.71-0.86-1.48-0.64-2.4c0.35-1.48,1.82-2.55,3.49-2.55h8.35
	c2.05,0,3.99-0.35,5.75-1.04c3.93-1.53,11.2-3.28,16.5,1.68v15.29H51.92z M85.52,93.5h-7V72.25h7V93.5z"/>
<path d="M67.65,3.77C59.24,2.38,51.3,6.42,47.5,13.6C43.7,6.42,35.75,2.38,27.35,3.77c-9.3,1.56-16.26,10.21-15.85,19.64l0,0.27
	c0.15,2.86,1.44,5.7,3.62,7.98l8.02,8.45l23.34,24.18c0.01,0.01,0.01,0.01,0.02,0.02c0.01,0.01,0.01,0.02,0.02,0.02
	c0.01,0.01,0.02,0.01,0.03,0.02c0.14,0.12,0.29,0.22,0.45,0.29c0.01,0,0.02,0.01,0.03,0.01c0.17,0.06,0.35,0.1,0.53,0.1
	c0.18,0,0.36-0.04,0.53-0.1c0.01,0,0.02-0.01,0.03-0.01c0.16-0.07,0.31-0.17,0.45-0.29c0.01-0.01,0.02-0.01,0.03-0.02
	c0.01-0.01,0.01-0.01,0.02-0.02c0.01-0.01,0.02-0.01,0.02-0.02L71.87,40.1l8-8.44c2.19-2.29,3.48-5.12,3.63-8.06l0-0.13
	C83.91,13.98,76.95,5.33,67.65,3.77z M77.71,29.59C77.71,29.59,77.7,29.59,77.71,29.59l-8.01,8.44L47.55,61.09L25.31,38.04
	L17.3,29.6c0,0,0,0-0.01-0.01c-1.69-1.77-2.69-3.92-2.79-5.99l0-0.26c-0.35-8.01,5.51-15.31,13.34-16.62
	C36,5.37,43.68,10.09,46.06,17.94c0,0,0,0,0,0c0.03,0.09,0.07,0.19,0.11,0.27c0.02,0.04,0.05,0.08,0.07,0.11
	c0.03,0.04,0.05,0.09,0.09,0.13c0.03,0.04,0.07,0.08,0.11,0.11c0.03,0.03,0.06,0.06,0.09,0.09c0.05,0.04,0.11,0.08,0.17,0.12
	c0.02,0.01,0.04,0.03,0.07,0.04c0.17,0.09,0.37,0.15,0.57,0.17c0.05,0,0.09,0,0.14,0c0.05,0,0.1,0,0.15,0
	c0.2-0.02,0.39-0.08,0.57-0.17c0.03-0.02,0.05-0.04,0.08-0.05c0.06-0.03,0.11-0.07,0.16-0.11c0.04-0.03,0.07-0.07,0.1-0.1
	c0.04-0.03,0.07-0.07,0.1-0.11c0.04-0.04,0.06-0.09,0.09-0.14c0.02-0.04,0.05-0.07,0.07-0.11c0.05-0.09,0.09-0.18,0.11-0.27
	c0,0,0,0,0,0c2.39-7.85,10.05-12.56,18.22-11.21c7.83,1.31,13.69,8.61,13.34,16.68l0,0.11C80.39,25.66,79.4,27.81,77.71,29.59z"/>
<path d="M60.85,31.57h-9.1c-0.64,0-1.21,0.4-1.42,1.01l-0.85,2.46c-0.52-4.88-1-9.63-1-10.56c0-1.21-0.87-1.62-1.38-1.67
	c-1.47-0.15-1.65-0.16-3.67,9.71c-0.23-0.14-0.5-0.22-0.78-0.22h-6.94c-0.83,0-1.5,0.67-1.5,1.5s0.67,1.5,1.5,1.5h5.88l0.95,2.68
	c0.22,0.64,0.84,1.04,1.52,1c0.67-0.05,1.23-0.54,1.37-1.2c0.29-1.41,0.59-2.87,0.88-4.27c0.41,3.89,0.84,7.69,0.92,8.48
	c0.08,0.7,0.63,1.25,1.33,1.32c0.06,0.01,0.11,0.01,0.17,0.01c0.63,0,1.21-0.4,1.42-1.01l2.69-7.75h8.04c0.83,0,1.5-0.67,1.5-1.5
	S61.68,31.57,60.85,31.57z"/>
</svg>
